<mxfile host="app.diagrams.net" agent="Mozilla/5.0 (Windows NT 10.0; Win64; x64) AppleWebKit/537.36 (KHTML, like Gecko) Chrome/134.0.0.0 Safari/537.36" version="26.1.1">
  <diagram name="PÃ¡gina-1" id="KG-c4qf19mqEMvVxpccB">
    <mxGraphModel grid="1" page="1" gridSize="10" guides="1" tooltips="1" connect="1" arrows="1" fold="1" pageScale="1" pageWidth="827" pageHeight="1169" math="0" shadow="0">
      <root>
        <mxCell id="0" />
        <mxCell id="1" parent="0" />
        <mxCell id="Mz7EqOc7yFlf59gGxf4V-3" value="" style="edgeStyle=orthogonalEdgeStyle;rounded=0;orthogonalLoop=1;jettySize=auto;html=1;" edge="1" parent="1" source="Mz7EqOc7yFlf59gGxf4V-1" target="Mz7EqOc7yFlf59gGxf4V-2">
          <mxGeometry relative="1" as="geometry" />
        </mxCell>
        <mxCell id="Mz7EqOc7yFlf59gGxf4V-1" value="inicio" style="ellipse;whiteSpace=wrap;html=1;" vertex="1" parent="1">
          <mxGeometry x="354" y="30" width="120" height="80" as="geometry" />
        </mxCell>
        <mxCell id="Mz7EqOc7yFlf59gGxf4V-5" value="" style="edgeStyle=orthogonalEdgeStyle;rounded=0;orthogonalLoop=1;jettySize=auto;html=1;" edge="1" parent="1" source="Mz7EqOc7yFlf59gGxf4V-2" target="Mz7EqOc7yFlf59gGxf4V-4">
          <mxGeometry relative="1" as="geometry" />
        </mxCell>
        <mxCell id="Mz7EqOc7yFlf59gGxf4V-2" value="horas = 3&lt;div&gt;minutos = 36&lt;/div&gt;" style="shape=parallelogram;perimeter=parallelogramPerimeter;whiteSpace=wrap;html=1;fixedSize=1;" vertex="1" parent="1">
          <mxGeometry x="354" y="140" width="120" height="60" as="geometry" />
        </mxCell>
        <mxCell id="Mz7EqOc7yFlf59gGxf4V-7" value="" style="edgeStyle=orthogonalEdgeStyle;rounded=0;orthogonalLoop=1;jettySize=auto;html=1;" edge="1" parent="1" source="Mz7EqOc7yFlf59gGxf4V-4" target="Mz7EqOc7yFlf59gGxf4V-6">
          <mxGeometry relative="1" as="geometry" />
        </mxCell>
        <mxCell id="Mz7EqOc7yFlf59gGxf4V-4" value="segundos = (minutos/60)+horas" style="whiteSpace=wrap;html=1;" vertex="1" parent="1">
          <mxGeometry x="296" y="230" width="236" height="60" as="geometry" />
        </mxCell>
        <mxCell id="Mz7EqOc7yFlf59gGxf4V-9" value="" style="edgeStyle=orthogonalEdgeStyle;rounded=0;orthogonalLoop=1;jettySize=auto;html=1;" edge="1" parent="1" source="Mz7EqOc7yFlf59gGxf4V-6" target="Mz7EqOc7yFlf59gGxf4V-8">
          <mxGeometry relative="1" as="geometry" />
        </mxCell>
        <mxCell id="Mz7EqOc7yFlf59gGxf4V-6" value="resultado" style="shape=document;whiteSpace=wrap;html=1;boundedLbl=1;" vertex="1" parent="1">
          <mxGeometry x="354" y="360" width="120" height="80" as="geometry" />
        </mxCell>
        <mxCell id="Mz7EqOc7yFlf59gGxf4V-8" value="fim" style="ellipse;whiteSpace=wrap;html=1;" vertex="1" parent="1">
          <mxGeometry x="374" y="520" width="80" height="80" as="geometry" />
        </mxCell>
      </root>
    </mxGraphModel>
  </diagram>
</mxfile>
